<svg xmlns="http://www.w3.org/2000/svg" version="1.1" xmlns:xlink="http://www.w3.org/1999/xlink" xmlns:svgjs="http://svgjs.dev/svgjs" width="1000" height="1000" viewBox="0 0 1000 1000"><rect width="1000" height="1000" fill="#ffffff"></rect><g transform="matrix(0.7,0,0,0.7,150,218.95000000000005)"><svg viewBox="0 0 448 360" data-background-color="#ffffff" preserveAspectRatio="xMidYMid meet" height="803" width="1000" xmlns="http://www.w3.org/2000/svg" xmlns:xlink="http://www.w3.org/1999/xlink"><g id="tight-bounds" transform="matrix(1,0,0,1,0,0)"><svg viewBox="0 0 448 360" height="360" width="448"><g><svg></svg></g><g><svg viewBox="0 0 448 360" height="360" width="448"><g><path xmlns="http://www.w3.org/2000/svg" d="M193.855 44.683c1.378 0 2.494 1.116 2.495 2.494 0 1.378-1.116 2.494-2.495 2.495h-23.846l-17.167 17.167c-0.973 0.973-2.551 0.973-3.53 0-0.973-0.973-0.973-2.551 0-3.529l13.644-13.645h-40.378c-11.518 0-19.151 2.688-23.815 8.113-4.739 5.519-6.66 14.056-6.66 25.63 0 0.069 0 0.137-0.006 0.206l0.212 36.692 14.692-14.692c0.973-0.973 2.551-0.973 3.53 0 0.973 0.973 0.973 2.551 0 3.53l-18.178 18.178c0.206 35.832 0.193 71.358-0.013 107.19 25.486 25.2 50.617 50.312 75.811 75.791h25.38c1.378 0 2.494 1.116 2.495 2.495 0 1.378-1.116 2.494-2.495 2.494h-20.448l25.942 26.241 0.006-0.006c8.188 8.188 15.577 12.859 22.824 13.413 7.146 0.543 14.442-2.956 22.586-11.093l28.555-28.555h-20.722c-1.378 0-2.494-1.116-2.495-2.494 0-1.378 1.116-2.494 2.495-2.495h25.711l16.625-16.625c0.973-0.973 2.551-0.973 3.529 0 0.973 0.973 0.973 2.551 0 3.53l-13.101 13.102h40.377c11.518 0 19.151-2.688 23.815-8.113 4.739-5.519 6.66-14.056 6.66-25.63h0.013l-0.212-36.898-16.014 16.014c-0.973 0.973-2.551 0.973-3.53 0-0.973-0.973-0.973-2.551 0-3.53l19.5-19.5c-0.206-35.832-0.193-71.358 0.013-107.19-25.486-25.2-50.617-50.312-75.811-75.791h-26.147c-1.378 0-2.494-1.116-2.495-2.495 0-1.378 1.116-2.494 2.495-2.494h21.215l-25.824-26.123c-0.044-0.037-0.081-0.075-0.124-0.112-8.188-8.188-15.577-12.859-22.824-13.413-7.146-0.543-14.442 2.956-22.586 11.093l-28.555 28.555h18.858zM122.578 44.683h45.367l32.078-32.078c9.248-9.248 17.81-13.195 26.484-12.534 8.568 0.649 16.956 5.824 25.985 14.854 0.05 0.05 0.094 0.094 0.137 0.143l29.278 29.615h43.508c13.071 0 21.919 3.268 27.594 9.871 5.6 6.517 7.864 16.101 7.864 28.867 0 0.081-0.006 0.156-0.012 0.23l-0.225 39.742 28.43 28.112 0.006-0.006c9.03 9.03 14.206 17.411 14.854 25.985 0.661 8.674-3.293 17.236-12.534 26.484l-30.768 30.768 0.237 41.843h0.012c0 12.765-2.27 22.35-7.864 28.867-5.675 6.604-14.524 9.872-27.594 9.871h-45.366l-32.078 32.078c-9.248 9.248-17.81 13.195-26.484 12.534-8.568-0.649-16.956-5.824-25.985-14.854l0.006-0.006-29.421-29.758h-43.509c-13.071 0-21.919-3.268-27.594-9.872-5.6-6.517-7.864-16.101-7.863-28.866h0.012l0.231-39.972-28.293-27.969c-0.05-0.044-0.1-0.087-0.143-0.137-9.03-9.03-14.206-17.411-14.854-25.985-0.661-8.674 3.293-17.236 12.534-26.484l30.768-30.768-0.237-41.607c-0.006-0.075-0.012-0.156-0.012-0.23 0-12.765 2.27-22.35 7.864-28.867 5.675-6.604 14.524-9.872 27.594-9.871zM87.682 179.997l-0.274-47.724-27.276 27.276c-8.138 8.138-11.636 15.44-11.094 22.587 0.549 7.246 5.226 14.642 13.413 22.823 0.037 0.037 0.081 0.081 0.113 0.125l24.837 24.551 0.281-49.644zM92.303 241.483l-0.2 35.09h0.013c0 11.58 1.921 20.117 6.66 25.63 4.664 5.432 12.297 8.113 23.815 8.113h38.576l-33.55-33.936-35.308-34.903zM325.415 49.672h-38.575l33.549 33.936 35.308 34.902 0.2-34.884c-0.006-0.069-0.006-0.137-0.007-0.205 0-11.58-1.921-20.117-6.66-25.63-4.664-5.432-12.297-8.113-23.815-8.113zM360.599 130.352l-0.281 49.645 0.274 47.724 27.276-27.276c8.138-8.138 11.636-15.44 11.094-22.587-0.549-7.252-5.226-14.642-13.413-22.824l0.006-0.006-24.956-24.669z" fill="#113f67" fill-rule="nonzero" stroke="none" stroke-width="1" stroke-linecap="butt" stroke-linejoin="miter" stroke-miterlimit="10" stroke-dasharray="" stroke-dashoffset="0" font-family="none" font-weight="none" font-size="none" text-anchor="none" style="mix-blend-mode: normal" data-fill-palette-color="tertiary"></path></g><g transform="matrix(1,0,0,1,150.1344537815126,90)"><svg viewBox="0 0 147.7310924369748 180" height="180" width="147.7310924369748"><g><svg viewBox="0 0 147.7310924369748 180" height="180" width="147.7310924369748"><g><svg viewBox="0 0 147.7310924369748 180" height="180" width="147.7310924369748"><g id="textblocktransform"><svg viewBox="0 0 147.7310924369748 180" height="180" width="147.7310924369748" id="textblock"><g><svg viewBox="0 0 147.7310924369748 180" height="180" width="147.7310924369748"><g transform="matrix(1,0,0,1,0,0)"><svg width="147.7310924369748" viewBox="-2.0999999046325684 -35.20000076293945 29.30000114440918 35.70000076293945" height="180" data-palette-color="#113f67"><g class="undefined-text-0" data-fill-palette-color="primary" id="text-0"><path d="M21.2 0.5Q18.85 0.5 18.3-2.9L18.3-2.9Q17.85-5.65 17.85-12.75L17.85-12.75 16.6-11.8 10.5-11.8Q9.35-8.85 7.83-6.5 6.3-4.15 4.6-3L4.6-3 4.6-2.9Q5.25-2.6 5.85-2.6L5.85-2.6Q6.6-2.6 7.28-2.85 7.95-3.1 8.1-3.1L8.1-3.1Q8.45-3.1 8.45-2.85L8.45-2.85Q8.45-2.5 7.75-1.65L7.75-1.65Q6.95-0.85 6.05-0.43 5.15 0 4.35 0L4.35 0Q3.7 0 2.5-0.4L2.5-0.4Q1.3-0.8 0.7-0.8L0.7-0.8Q-0.05-0.8-0.83-0.4-1.6 0-1.85 0L-1.85 0Q-2.1 0-2.1-0.25L-2.1-0.25Q-2.1-0.75-1.7-1.43-1.3-2.1-0.75-2.35L-0.75-2.35Q-0.45-2.5-0.18-2.55 0.1-2.6 0.5-2.75L0.5-2.75Q2.45-3.5 3.93-5.48 5.4-7.45 6.45-9.93 7.5-12.4 8.85-16.25L8.85-16.25Q10.4-20.6 11.53-23.33 12.65-26.05 14.2-28.38 15.75-30.7 17.75-32L17.75-32 17.75-32.05Q17.05-32.15 16.7-32.25L16.7-32.25Q16.5-32.3 15.48-32.45 14.45-32.6 12.85-32.6L12.85-32.6Q10.15-32.6 8.33-31.6 6.5-30.6 4.9-28.35L4.9-28.35Q4.4-27.55 4.1-27.55L4.1-27.55Q3.8-27.55 3.8-27.95L3.8-27.95 3.85-28.45Q4.6-31.5 7.28-33.35 9.95-35.2 13.5-35.2L13.5-35.2Q14.95-35.2 17.85-34.7L17.85-34.7Q20.55-34.2 21.7-34.2L21.7-34.2Q23-34.2 24.45-34.7L24.45-34.7 24.45-34.65Q23.1-32.4 22.35-27.63 21.6-22.85 21.6-15.8L21.6-15.8Q21.6-8.55 21.9-6L21.9-6Q22-4.55 22.33-3.83 22.65-3.1 23.45-3.1L23.45-3.1Q23.95-3.1 24.43-3.35 24.9-3.6 25.7-4.1L25.7-4.1Q26.65-4.75 26.9-4.75L26.9-4.75Q27.2-4.75 27.2-4.55L27.2-4.55Q27.2-4.15 26.9-3.6L26.9-3.6Q25.95-1.9 24.33-0.7 22.7 0.5 21.2 0.5L21.2 0.5ZM11.4-14.8L17.9-14.8Q18-19.4 18.55-23.93 19.1-28.45 19.95-31.3L19.95-31.3 19.9-31.3Q17.95-30.4 16.13-26.95 14.3-23.5 11.95-16.5L11.95-16.5 11.4-14.8Z" fill="#113f67" data-fill-palette-color="primary"></path></g></svg></g></svg></g></svg></g></svg></g></svg></g></svg></g></svg></g><defs></defs></svg><rect width="448" height="360" fill="none" stroke="none" visibility="hidden"></rect></g></svg></g></svg>